<svg width="100" height="53" viewBox="0 0 100 53" fill="none" xmlns="http://www.w3.org/2000/svg">
<path d="M66.2658 4.17002C66.6256 3.30318 67.0734 2.72515 67.6093 2.43592C72.2498 1.83014 76.8442 2.4484 81.3926 4.29069C85.5455 5.97278 88.9354 7.99023 91.5625 10.343C94.2291 12.7118 96.0666 15.2971 97.0751 18.099C98.1231 20.9168 98.5459 23.8496 98.3434 26.8973C98.1574 29.9057 97.3774 33.0647 96.0036 36.3744C93.2887 42.9151 89.4332 47.0836 84.4371 48.8801C79.4409 50.6766 73.0273 49.9888 65.1961 46.8169C60.5687 44.9425 56.4824 42.3209 52.9373 38.9519C52.7053 38.3977 53.0718 36.9582 54.0367 34.6335C54.5765 33.3333 54.9874 32.5102 55.2696 32.1642C55.6336 31.6213 56.5868 31.6622 58.1293 32.287C58.5644 32.4632 59.0424 32.7028 59.5634 33.0059C60.3127 30.0876 61.636 26.3432 63.5331 21.7726C65.2177 17.7143 67.0087 14.0673 68.9061 10.8316C68.422 10.7736 67.8635 10.6164 67.2307 10.3601C65.6882 9.73533 64.9803 9.1034 65.107 8.46432C65.3725 6.82289 65.7588 5.39146 66.2658 4.17002ZM67.4584 37.8607C68.4418 38.7192 69.6059 39.4209 70.9506 39.9656C74.2334 41.2952 77.5274 41.3177 80.8327 40.033C84.1939 38.725 86.6186 36.2782 88.1069 32.6926C89.6279 29.0283 89.807 25.2577 88.6442 21.3808C87.4813 17.5039 85.2388 14.8926 81.9165 13.5469C80.5322 12.9862 79.1719 12.7574 77.8354 12.8605C76.7195 16.5508 75.2211 20.6615 73.3403 25.1927C71.0997 30.5907 69.1391 34.8133 67.4584 37.8607Z" fill="#FEE440"/>
<path d="M44.4592 24.2304C45.0316 22.8513 46.0146 21.7076 47.408 20.7992C48.6463 20.9325 49.5027 21.0953 49.9774 21.2876C50.7288 21.5919 51.4347 22.0619 52.0948 22.6976C52.4021 24.2948 52.2449 25.8421 51.6235 27.3393C51.0183 28.7972 49.9979 30.0868 48.5622 31.2082C47.7986 31.2671 47.041 31.1444 46.2895 30.84C45.5381 30.5356 44.7334 30.0256 43.8754 29.3099C43.6431 27.4208 43.8377 25.7276 44.4592 24.2304ZM52.6775 4.43118C53.2499 3.05213 54.2328 1.9084 55.6263 1C56.8646 1.13335 57.721 1.29614 58.1956 1.48838C58.9471 1.79276 59.6529 2.26276 60.3131 2.89837C60.6203 4.49563 60.4632 6.04288 59.8417 7.54013C59.2529 8.95858 58.2325 10.2482 56.7805 11.4091C56.0168 11.4679 55.2593 11.3452 54.5078 11.0408C53.7563 10.7364 52.9516 10.2264 52.0937 9.51069C51.8614 7.6216 52.056 5.92843 52.6775 4.43118Z" fill="#FEE440"/>
<path d="M2.00334 42.9163C2.02626 40.8685 2.16715 39.7182 2.42599 39.4655C2.94129 39.1735 3.47673 38.9884 4.0323 38.9103C4.80167 38.7923 5.29301 38.7347 5.50633 38.7374C5.04214 34.4644 4.83416 30.1733 4.88241 25.8643C4.92874 21.7259 5.23081 17.6121 5.78862 13.523C5.57531 13.5202 5.0854 13.4499 4.3189 13.3119C3.72305 13.1762 3.1919 12.9773 2.72548 12.7152C2.47236 12.4559 2.35727 11.3023 2.3802 9.25443C2.40504 7.0359 2.54712 5.77897 2.80644 5.48365C4.39835 4.30954 7.17814 3.74824 11.1458 3.79973C13.7056 3.83295 15.4737 4.06925 16.4502 4.50863C16.7014 4.93859 16.9879 6.0304 17.3096 7.78405C17.6744 9.49559 17.8519 10.7993 17.8418 11.6953C17.8356 12.2499 17.7676 12.6117 17.6377 12.7807C16.6938 13.2378 15.8806 13.462 15.198 13.4531C14.7287 13.447 14.3663 13.421 14.1108 13.375C14.5466 16.3676 14.7704 19.2507 14.782 22.0244C16.0254 21.4859 18.439 21.2398 22.0227 21.2863C25.5637 21.3323 28.4186 21.6894 30.5872 22.3576C30.752 19.0741 31.0184 16.24 31.3865 13.8552C31.1732 13.8525 30.6832 13.7821 29.9167 13.6441C29.3209 13.5084 28.7898 13.3095 28.3233 13.0474C28.0702 12.7881 27.9551 11.6345 27.9781 9.58665C28.0029 7.36812 28.145 6.1112 28.4043 5.81587C28.3674 5.30335 29.0547 4.88557 30.4664 4.56253C31.8782 4.23949 33.6506 4.09181 35.7837 4.1195C38.5568 4.15549 40.8582 4.39871 42.688 4.84916C42.9392 5.27912 43.2256 6.37093 43.5474 8.12458C43.9122 9.83612 44.0896 11.1399 44.0796 12.0358C44.0734 12.5904 44.0053 12.9523 43.8755 13.1213C42.9316 13.5784 41.9051 13.7997 40.7958 13.7853C40.3265 13.7792 39.9641 13.7532 39.7086 13.7072C40.1819 17.1697 40.3958 20.9274 40.3505 24.9805C40.3132 28.3083 40.0033 33.126 39.4206 39.4336C39.6771 39.3943 40.0399 39.3776 40.5092 39.3837C41.1918 39.3926 41.9998 39.6378 42.9331 40.1193C43.0592 40.2916 43.1192 40.655 43.113 41.2097C43.1029 42.1056 42.8961 43.4257 42.4926 45.17C42.1322 46.8721 41.8216 47.9348 41.5608 48.3581C40.7886 48.7321 39.3999 48.9061 37.3947 48.8801C35.1336 48.8508 32.981 48.6521 30.937 48.2842C28.893 47.9164 27.895 47.498 27.9429 47.0293C27.6902 46.7273 27.5763 45.4671 27.6012 43.2485C27.6241 41.2007 27.765 40.0504 28.0238 39.7977C28.5391 39.5057 29.0746 39.3207 29.6302 39.2425C30.3995 39.1245 30.8909 39.0669 31.1042 39.0697C30.7541 36.0355 30.5579 32.598 30.5156 28.7572C27.952 29.0653 25.1343 29.1994 22.0626 29.1595C18.3935 29.1119 15.8783 28.9086 14.5169 28.5495C14.3507 31.961 14.1193 35.4783 13.8228 39.1014C14.0792 39.062 14.4421 39.0454 14.9114 39.0515C15.594 39.0604 16.402 39.3055 17.3353 39.787C17.4614 39.9594 17.5213 40.3228 17.5151 40.8775C17.5051 41.7734 17.3196 43.0938 16.9587 44.8386C16.5983 46.5407 16.2664 47.6031 15.963 48.0259C14.977 48.4398 13.0334 48.6279 10.1323 48.5903C5.78068 48.5338 3.18492 47.9027 2.34503 46.6971C2.09239 46.3951 1.9785 45.1348 2.00334 42.9163Z" fill="#00BBF9"/>
</svg>
