<svg width="228" height="95" viewBox="0 0 228 95" fill="none" xmlns="http://www.w3.org/2000/svg">
<path d="M54.9568 69.3889C56.4614 64.3257 59.2538 60.4796 63.3341 57.8507C67.4265 55.1808 71.8938 54.5496 76.7362 55.957C78.9522 56.601 80.7391 57.5639 82.0968 58.8457C83.5078 60.0986 84.4318 61.5648 84.8689 63.2444C85.3592 64.8951 85.5402 66.6112 85.412 68.3926C85.3371 70.1452 85.0023 72.0218 84.4077 74.0226C82.7333 79.6574 80.0024 83.5214 76.2151 85.6145C72.4689 87.7196 68.2772 88.0982 63.64 86.7505C61.1778 86.0349 59.1857 85.0123 57.6638 83.6828C56.154 82.3125 55.154 80.802 54.6637 79.1513C54.2267 77.4718 54.0419 75.8433 54.1093 74.266C54.1768 72.6887 54.4593 71.063 54.9568 69.3889ZM63.9048 71.4572C63.2982 73.4988 63.4125 75.4395 64.2478 77.2791C65.0831 79.1188 66.3831 80.2951 68.1477 80.8079C69.666 81.2492 71.1612 81.0184 72.6332 80.1155C74.1174 79.1717 75.2709 78.0653 76.0938 76.7963C76.9289 75.4864 77.5284 74.219 77.8925 72.994C78.4385 71.1566 78.3577 69.4031 77.6501 67.7337C76.9547 66.0233 75.7657 64.9237 74.0832 64.4347C72.0313 63.8383 69.9755 64.3055 67.9158 65.8361C65.9092 67.3377 64.5722 69.2114 63.9048 71.4572Z" fill="white"/>
<path d="M89.5616 64.2809C89.7415 62.5424 89.9962 61.3258 90.3257 60.6311C92.8217 60.1587 95.2167 60.0402 97.5106 60.2756C100.272 60.5589 102.337 61.3492 103.705 62.6466C103.588 63.3631 103.455 64.4422 103.306 65.8839L103.613 65.4012C103.776 65.075 104.051 64.6962 104.439 64.2646C104.874 63.795 105.371 63.3532 105.929 62.939C106.491 62.4825 107.257 62.1326 108.227 61.8892C109.196 61.6459 110.255 61.5831 111.402 61.7008C114.63 62.032 117.228 63.6912 119.194 66.6783C118.703 68.5135 117.813 69.8577 116.523 70.711C115.232 71.5642 113.988 71.9722 112.79 71.935C111.332 70.6712 109.881 69.9653 108.437 69.8171C104.231 69.3856 101.852 71.8412 101.299 77.1839C101.11 79.0072 101.138 81.0241 101.381 83.2346C101.488 83.0313 102.094 82.9863 103.198 83.0996C104.473 83.2304 105.243 83.4594 105.51 83.7867C105.936 84.6447 106.055 85.9853 105.866 87.8086C105.581 90.5648 104.906 92.3167 103.841 93.0646C101.626 93.3087 98.9897 93.2739 95.9311 92.9601C90.9184 92.4458 88.0568 91.6808 87.3462 90.6651C87.2714 90.1432 87.3416 88.8434 87.5566 86.7657C87.8638 83.7975 88.1558 82.2205 88.4326 82.0347C88.7695 81.6835 89.6176 81.5777 90.9769 81.7172C91.954 81.8174 92.6608 82.0399 93.0974 82.3847C92.816 81.3702 92.9649 78.0644 93.5442 72.4673C93.7373 70.6016 93.9107 69.5481 94.0645 69.3067C93.5459 69.3392 93.0742 69.3337 92.6494 69.2901C91.1201 69.1332 90.0976 68.6426 89.5819 67.8184C89.3928 67.1562 89.3861 65.977 89.5616 64.2809Z" fill="white"/>
<path d="M125.018 91.2376C124.587 88.6266 124.889 86.9152 125.922 86.1033C126.912 85.5575 128.313 85.1412 130.125 84.8543C130.377 84.8142 130.721 84.803 131.157 84.8205C130.955 83.5992 130.59 81.6476 130.061 78.9658C129.524 76.2418 129.142 74.1849 128.912 72.7952C128.744 72.8219 128.059 72.9951 126.858 73.3149C125.651 73.5926 124.941 73.7482 124.731 73.7815C124.562 73.8082 124.303 73.8061 123.952 73.7753C123.601 73.7444 123.341 73.7424 123.173 73.7691C122.976 73.6273 122.819 73.1984 122.701 72.4825C122.513 71.3455 122.449 69.908 122.508 68.1701C122.56 66.3901 122.702 65.2872 122.934 64.8615C124.073 63.9033 126.412 63.144 129.95 62.5836C132.225 62.2233 133.766 62.1305 134.573 62.3052C135.38 62.4799 135.867 63.0726 136.033 64.0833C136.242 65.3467 136.345 66.6268 136.343 67.9235C139.51 62.7549 143.305 59.8202 147.728 59.1197C149.835 58.7861 151.842 59.03 153.75 59.8514C155.693 60.624 157.295 61.9476 158.555 63.8223L158.503 63.5064C161.641 58.9473 165.295 56.3376 169.465 55.677C176.753 54.5228 181.238 59.0414 182.92 69.2327C183.247 71.212 183.451 73.2324 183.532 75.2938C183.518 75.2096 183.7 75.1375 184.08 75.0774C184.711 74.9773 185.719 74.9258 187.102 74.9229C187.55 75.284 187.966 76.6226 188.348 78.9388C188.828 81.8446 188.912 83.6678 188.602 84.4083C185.582 85.751 182.913 86.6058 180.596 86.9727C178.953 87.2329 176.995 87.1541 174.722 86.7364C174.392 86.5725 173.954 85.8856 173.409 84.6755C172.856 83.4234 172.504 82.3341 172.351 81.4076C172.121 80.0179 172.302 78.7576 172.894 77.6268C173.309 77.2587 173.895 77.0145 174.653 76.8944C175.243 76.801 175.829 76.8162 176.412 76.9401C176.391 76.8137 176.3 76.2663 176.14 75.2977C176.023 74.3224 175.94 73.6874 175.891 73.3926C175.439 70.6552 174.295 68.4381 172.459 66.7411C170.622 65.044 168.735 64.349 166.798 64.6559C165.66 64.836 164.519 65.3841 163.373 66.3002C162.221 67.1742 161.401 68.2331 160.915 69.4769C161.006 69.765 161.085 70.2493 161.155 70.9297C161.655 73.9619 161.949 76.5297 162.037 78.6333L162.163 78.6133C162.199 78.5645 162.237 78.5368 162.279 78.5301C163.627 78.3166 164.951 78.215 166.249 78.2255C166.698 78.5865 167.113 79.9252 167.496 82.2414C167.975 85.1472 168.06 86.9703 167.75 87.7109C164.73 89.0535 161.85 89.9417 159.112 90.3753C157.048 90.7023 154.879 90.6568 152.605 90.2391C152.276 90.0752 151.838 89.3883 151.293 88.1783C150.74 86.9261 150.387 85.8368 150.235 84.9103C150.005 83.5206 150.186 82.2604 150.778 81.1295C151.192 80.7614 151.779 80.5172 152.537 80.3971C153.548 80.237 154.345 80.2189 154.927 80.3427C154.906 80.2164 154.816 79.6689 154.656 78.7003C154.538 77.725 154.459 77.1111 154.417 76.8584C153.979 74.2053 152.86 72.0058 151.059 70.26C149.293 68.4654 147.314 67.7416 145.124 68.0886C143.228 68.3888 141.609 69.4448 140.265 71.2565C138.956 73.0194 138.573 75.5433 139.116 78.8281C139.31 80.0072 139.627 81.5343 140.066 83.4094C140.523 83.0345 141.152 82.7837 141.952 82.657C142.71 82.5369 143.191 82.5688 143.394 82.7526C143.816 82.6859 144.165 83.4948 144.443 85.1793C144.506 85.5584 144.58 87.3184 144.666 90.4593C141.877 92.4136 138.08 93.7711 133.278 94.5317C129.655 95.1055 127.238 94.8618 126.025 93.8006C125.562 93.3553 125.227 92.501 125.018 91.2376Z" fill="white"/>
<path d="M196.374 79.6279C195.539 77.9431 194.839 76.0037 194.274 73.8097C193.767 71.6356 193.65 70.0565 193.923 69.0723C194.309 68.6029 194.808 68.2207 195.423 67.9258C196.921 67.2069 198.569 66.9843 200.369 67.2581C200.579 67.2992 200.779 67.5113 200.969 67.8942C201.083 68.1239 201.196 68.4962 201.309 69.011C203.3 69.3827 205.014 69.4367 206.452 69.173C207.929 68.8909 209.684 68.2613 211.72 67.2843C213.218 66.5653 214.437 65.8613 215.379 65.1721C216.379 64.5028 217.293 63.6611 218.121 62.6472C219.007 61.6531 219.463 60.4626 219.489 59.0756C219.514 57.6886 219.11 56.1527 218.275 54.4679C217.572 53.0511 216.84 51.9094 216.078 51.0429C214.161 55.3285 211.417 58.3285 207.846 60.0429C204.082 61.8494 200.308 61.8123 196.524 59.9316C192.72 58.0126 189.67 54.7364 187.374 50.1031C186.748 48.8395 186.303 47.6546 186.04 46.5484C185.867 46.7739 185.626 46.9604 185.319 47.1078C185.012 47.2553 184.523 47.4191 183.851 47.5991C183.161 47.7409 182.777 47.8302 182.7 47.8671C181.689 47.0729 180.775 45.8525 179.959 44.2059C179.086 42.4445 178.691 40.9753 178.773 39.7982C181.408 37.6328 183.685 36.0892 185.605 35.1675C187.948 34.043 190.202 33.3639 192.368 33.13C193.859 33.8363 195.012 35.0128 195.829 36.6593C196.531 38.0761 196.754 39.4383 196.499 40.7458C196.229 41.1599 195.883 41.4683 195.46 41.6711C195.114 41.837 194.606 41.9625 193.935 42.0476C194.158 43.6473 194.639 45.1938 195.379 46.6872C197.903 51.78 201.201 53.3494 205.271 51.3954C207.652 50.2525 209.27 48.433 210.125 45.9371C210.979 43.4412 210.771 40.9104 209.499 38.3449C209.044 37.4259 208.387 36.4849 207.53 35.5219C207.144 36.0863 206.529 36.5713 205.684 36.9768C205.185 37.2165 204.801 37.2583 204.534 37.1023C203.672 36.9944 202.776 36.0024 201.846 34.1261C200.879 32.1732 200.617 30.8295 201.061 30.0949C201.241 28.3491 203.175 26.5914 206.862 24.8217C208.628 23.9737 210.49 23.2697 212.447 22.7097C214.442 22.1312 215.842 21.8384 216.646 21.8313C217.293 22.7532 217.845 23.6736 218.3 24.5926C219.135 26.2774 219.474 27.5368 219.317 28.3707C219.142 28.8812 218.805 29.2563 218.306 29.496C218.037 29.625 217.759 29.7349 217.471 29.8256C217.203 29.8596 216.886 29.893 216.522 29.9256C216.158 29.9582 215.909 29.983 215.775 30C219.193 36.3224 221.13 39.9431 221.586 40.8621C223.56 44.8444 225.009 48.3914 225.933 51.5029C226.895 54.596 227.381 57.2544 227.389 59.4781C227.417 61.7401 226.967 63.7574 226.039 65.5301C225.15 67.2843 223.974 68.7492 222.513 69.9248C221.07 71.1387 219.197 72.2987 216.892 73.4047C212.476 75.5246 208.036 76.5419 203.573 76.4566C203.853 77.8861 203.955 78.6193 203.879 78.6562C203.491 79.5056 202.664 80.2345 201.397 80.8429C200.629 81.2115 199.823 81.4561 198.98 81.5766C198.193 81.717 197.705 81.6907 197.514 81.4978C197.152 81.0554 196.772 80.432 196.374 79.6279Z" fill="white"/>
<path d="M22.4851 29.2588C22.845 28.392 23.2928 27.8139 23.8286 27.5247C28.4692 26.9189 33.0636 27.5372 37.612 29.3795C41.7649 31.0616 45.1548 33.079 47.7819 35.4318C50.4485 37.8006 52.286 40.3859 53.2945 43.1877C54.3425 46.0056 54.7653 48.9384 54.5628 51.9861C54.3767 54.9945 53.5968 58.1535 52.223 61.4632C49.5081 68.0038 45.6526 72.1724 40.6564 73.9689C35.6603 75.7653 29.2467 75.0776 21.4155 71.9057C16.788 70.0313 12.7018 67.4097 9.15669 64.0407C8.92472 63.4865 9.29121 62.047 10.2561 59.7223C10.7958 58.4221 11.2068 57.599 11.489 57.253C11.853 56.7101 12.8062 56.751 14.3487 57.3758C14.7838 57.552 15.2618 57.7916 15.7828 58.0947C16.5321 55.1764 17.8554 51.432 19.7525 46.8614C21.437 42.8031 23.2281 39.1561 25.1255 35.9204C24.6414 35.8624 24.0829 35.7052 23.4501 35.4489C21.9076 34.8241 21.1997 34.1922 21.3264 33.5531C21.5919 31.9117 21.9781 30.4802 22.4851 29.2588ZM23.6778 62.9494C24.6612 63.808 25.8253 64.5097 27.17 65.0543C30.4528 66.384 33.7468 66.4065 37.0521 65.1218C40.4133 63.8137 42.838 61.3669 44.3263 57.7814C45.8473 54.1171 46.0264 50.3465 44.8635 46.4696C43.7007 42.5927 41.4582 39.9814 38.1359 38.6357C36.7516 38.075 35.3912 37.8462 34.0548 37.9493C32.9389 41.6396 31.4405 45.7503 29.5597 50.2815C27.3191 55.6794 25.3584 59.9021 23.6778 62.9494Z" fill="#FEE440"/>
<path d="M0.678585 49.3191C1.251 47.9401 2.23395 46.7964 3.62742 45.888C4.86569 46.0213 5.72214 46.1841 6.19675 46.3763C6.94822 46.6807 7.65405 47.1507 8.31424 47.7863C8.62146 49.3836 8.46433 50.9308 7.84285 52.4281C7.23772 53.886 6.21731 55.1756 4.78161 56.297C4.01796 56.3559 3.26039 56.2332 2.50892 55.9288C1.75745 55.6244 0.952742 55.1144 0.094801 54.3987C-0.137489 52.5096 0.0571053 50.8164 0.678585 49.3191ZM8.89684 29.52C9.46926 28.1409 10.4522 26.9972 11.8457 26.0888C13.084 26.2221 13.9404 26.3849 14.415 26.5772C15.1665 26.8815 15.8723 27.3515 16.5325 27.9871C16.8397 29.5844 16.6826 31.1317 16.0611 32.6289C15.4723 34.0474 14.4519 35.337 12.9999 36.4978C12.2362 36.5567 11.4786 36.434 10.7272 36.1296C9.9757 35.8252 9.171 35.3152 8.31306 34.5995C8.08077 32.7104 8.27536 31.0172 8.89684 29.52Z" fill="#FEE440"/>
<path d="M120.259 35.3066C119.35 34.4603 118.826 33.3688 118.687 32.0321C118.56 30.8147 118.774 29.634 119.331 28.4901C119.885 27.3224 120.758 26.6763 121.952 26.5518C122.763 26.4671 123.518 26.6418 124.214 27.0759C124.933 27.4836 125.318 27.9381 125.37 28.4394L125.415 28.869C125.43 29.0122 125.44 29.337 125.444 29.8432C125.47 30.3231 125.496 31.0323 125.521 31.9707C125.568 32.8828 125.613 33.8916 125.656 34.9971C125.631 35.2169 125.309 35.4917 124.692 35.8215C124.075 36.1513 123.516 36.3423 123.015 36.3946C122.108 36.4892 121.189 36.1266 120.259 35.3066Z" fill="#00BBF9"/>
<path fill-rule="evenodd" clip-rule="evenodd" d="M140.941 28.5791C141.456 32.3586 140.723 36.0203 139.058 39.1487L147.483 44.7099C149.096 45.7749 149.54 47.9459 148.475 49.5591C147.41 51.1723 145.239 51.6167 143.626 50.5518L134.755 44.6953C134.695 44.6557 134.636 44.6146 134.58 44.572C132.181 46.5077 129.24 47.8341 125.963 48.2804C116.386 49.5846 107.566 42.8784 106.261 33.3018C104.957 23.7252 111.663 14.9047 121.24 13.6005C130.817 12.2964 139.637 19.0025 140.941 28.5791ZM114.541 28.3744C114.206 30.026 114.129 31.7112 114.308 33.4299C114.54 35.6498 115.202 37.487 116.295 38.9415C117.411 40.3935 118.889 41.0236 120.727 40.8319C121.323 40.7697 122.258 40.3585 123.53 39.5985C124.802 38.8384 125.576 38.3957 125.853 38.2703C125.791 38.3733 125.77 38.5203 125.79 38.7112C125.822 39.0215 125.946 39.3947 126.16 39.8309C126.647 39.8765 127.906 39.7936 129.935 39.5819C131.057 39.4649 132.047 39.241 132.905 38.9102C133.763 38.5793 134.262 38.2739 134.402 37.9939C134.444 37.7 134.41 37.0279 134.3 35.9776C134.104 34.0918 133.902 33.0873 133.696 32.964C132.671 32.8537 131.634 32.8534 130.583 32.9629C130.345 32.9878 130.146 33.0448 129.986 33.1338C130.166 32.7772 130.093 31.0354 129.767 27.9084C129.655 26.8342 129.555 26.2292 129.469 26.0935C129.76 26.1114 130.025 26.1078 130.264 26.0829C130.765 26.0307 131.356 25.9087 132.036 25.7172C132.713 25.5017 133.079 25.3068 133.133 25.1322C133.206 24.9074 133.183 24.2221 133.063 23.0763C132.946 21.9544 132.829 21.291 132.711 21.0861L132.636 21.0578C132.585 21.0389 132.461 21.0036 132.263 20.9519C132.088 20.8977 131.854 20.8498 131.56 20.8081C131.266 20.7663 130.83 20.7515 130.252 20.7635C129.698 20.773 129.063 20.8151 128.347 20.8898C127.44 20.9844 126.731 21.1307 126.221 21.3287C125.732 21.5003 125.27 21.814 124.835 22.2696C124.901 22.6729 125.002 23.519 125.136 24.808C125.112 24.8105 125.052 24.6961 124.956 24.4649C124.859 24.2337 124.698 23.9609 124.472 23.6467C124.244 23.3085 123.957 22.9885 123.612 22.6867C123.288 22.3585 122.839 22.1037 122.265 21.9223C121.715 21.7384 121.094 21.6825 120.402 21.7547C118.874 21.914 117.598 22.6383 116.575 23.9275C115.575 25.2141 114.897 26.6965 114.541 28.3744Z" fill="#00BBF9"/>
<path d="M61.6964 39.1198C61.7193 37.072 61.8602 35.9217 62.1191 35.669C62.6344 35.377 63.1698 35.192 63.7254 35.1138C64.4948 34.9958 64.9861 34.9382 65.1994 34.9409C64.7352 30.6679 64.5272 26.3769 64.5755 22.0678C64.6218 17.9294 64.9239 13.8156 65.4817 9.72653C65.2684 9.72376 64.7785 9.6534 64.012 9.51544C63.4161 9.37969 62.885 9.18078 62.4186 8.91871C62.1654 8.6594 62.0504 7.50581 62.0733 5.45794C62.0981 3.23941 62.2402 1.98249 62.4995 1.68716C64.0914 0.513057 66.8712 -0.0482491 70.8389 0.00324536C73.3987 0.0364676 75.1668 0.272767 76.1433 0.712145C76.3945 1.14211 76.6809 2.23391 77.0027 3.98757C77.3675 5.69911 77.5449 7.00285 77.5349 7.8988C77.5287 8.45343 77.4606 8.81524 77.3307 8.98424C76.3869 9.44136 75.5737 9.66549 74.8911 9.65663C74.4218 9.65054 74.0594 9.6245 73.8039 9.57852C74.2397 12.5711 74.4635 15.4542 74.4751 18.2279C75.7185 17.6894 78.1321 17.4433 81.7158 17.4898C85.2568 17.5358 88.1117 17.8929 90.2803 18.5611C90.4451 15.2776 90.7115 12.4435 91.0795 10.0588C90.8662 10.056 90.3763 9.98562 89.6098 9.84766C89.014 9.71192 88.4828 9.51301 88.0164 9.25093C87.7633 8.99163 87.6482 7.83804 87.6711 5.79016C87.696 3.57164 87.838 2.31471 88.0974 2.01939C88.0604 1.50686 88.7478 1.08908 90.1595 0.766042C91.5712 0.443002 93.3437 0.295324 95.4768 0.323009C98.2499 0.359 100.551 0.602221 102.381 1.05267C102.632 1.48263 102.919 2.57444 103.24 4.3281C103.605 6.03964 103.783 7.34338 103.773 8.23933C103.766 8.79396 103.698 9.15577 103.569 9.32477C102.625 9.78189 101.598 10.0033 100.489 9.98885C100.02 9.98276 99.6572 9.95673 99.4017 9.91074C99.875 13.3732 100.089 17.1309 100.044 21.184C100.006 24.5118 99.6963 29.3295 99.1137 35.6371C99.3701 35.5978 99.733 35.5812 100.202 35.5872C100.885 35.5961 101.693 35.8413 102.626 36.3228C102.752 36.4951 102.812 36.8586 102.806 37.4132C102.796 38.3091 102.589 39.6292 102.186 41.3735C101.825 43.0756 101.515 44.1383 101.254 44.5616C100.482 44.9356 99.093 45.1096 97.0878 45.0836C94.8267 45.0543 92.6741 44.8557 90.6301 44.4878C88.5861 44.1199 87.588 43.7016 87.636 43.2328C87.3833 42.9308 87.2694 41.6706 87.2943 39.4521C87.3172 37.4042 87.4581 36.2539 87.7169 36.0013C88.2322 35.7093 88.7677 35.5242 89.3232 35.4461C90.0926 35.328 90.5839 35.2704 90.7972 35.2732C90.4472 32.239 90.251 28.8015 90.2087 24.9607C87.6451 25.2688 84.8274 25.4029 81.7556 25.363C78.0866 25.3154 75.5714 25.1121 74.21 24.753C74.0438 28.1645 73.8124 31.6818 73.5158 35.3049C73.7723 35.2656 74.1352 35.2489 74.6045 35.255C75.2871 35.2639 76.095 35.5091 77.0284 35.9905C77.1545 36.1629 77.2144 36.5263 77.2082 37.081C77.1982 37.9769 77.0127 39.2973 76.6518 41.0421C76.2914 42.7442 75.9595 43.8067 75.6561 44.2294C74.67 44.6433 72.7265 44.8314 69.8254 44.7938C65.4738 44.7373 62.878 44.1062 62.0381 42.9006C61.7855 42.5986 61.6716 41.3384 61.6964 39.1198Z" fill="#00BBF9"/>
</svg>
