<svg width="228" height="96" viewBox="0 0 228 96" fill="none" xmlns="http://www.w3.org/2000/svg">
<path d="M54.9568 70.2226C56.4614 65.1595 59.2538 61.3134 63.3341 58.6844C67.4265 56.0146 71.8938 55.3834 76.7362 56.7907C78.9522 57.4348 80.7391 58.3977 82.0968 59.6795C83.5078 60.9323 84.4318 62.3986 84.8689 64.0782C85.3592 65.7288 85.5402 67.4449 85.412 69.2264C85.3371 70.9789 85.0023 72.8556 84.4077 74.8563C82.7333 80.4912 80.0024 84.3551 76.2151 86.4483C72.4689 88.5533 68.2772 88.932 63.64 87.5842C61.1778 86.8686 59.1857 85.8461 57.6638 84.5166C56.154 83.1463 55.154 81.6358 54.6637 79.9851C54.2267 78.3055 54.0419 76.6771 54.1093 75.0998C54.1768 73.5225 54.4593 71.8968 54.9568 70.2226ZM63.9048 72.2909C63.2982 74.3326 63.4125 76.2732 64.2478 78.1129C65.0831 79.9526 66.3831 81.1288 68.1477 81.6417C69.666 82.083 71.1612 81.8521 72.6332 80.9492C74.1174 80.0054 75.2709 78.899 76.0938 77.63C76.9289 76.3202 77.5284 75.0527 77.8925 73.8278C78.4385 71.9903 78.3577 70.2369 77.6501 68.5674C76.9547 66.8571 75.7657 65.7574 74.0832 65.2684C72.0313 64.6721 69.9755 65.1392 67.9158 66.6698C65.9092 68.1715 64.5722 70.0452 63.9048 72.2909Z" fill="#2D3142"/>
<path d="M89.5616 65.1147C89.7415 63.3762 89.9962 62.1596 90.3257 61.4649C92.8217 60.9925 95.2167 60.8739 97.5106 61.1093C100.272 61.3926 102.337 62.1829 103.705 63.4804C103.588 64.1968 103.455 65.2759 103.306 66.7176L103.613 66.2349C103.776 65.9088 104.051 65.5299 104.439 65.0984C104.874 64.6288 105.371 64.1869 105.929 63.7728C106.491 63.3162 107.257 62.9663 108.227 62.723C109.196 62.4796 110.255 62.4168 111.402 62.5345C114.63 62.8657 117.228 64.5249 119.194 67.5121C118.703 69.3473 117.813 70.6915 116.523 71.5447C115.232 72.3979 113.988 72.8059 112.79 72.7687C111.332 71.505 109.881 70.799 108.437 70.6508C104.231 70.2194 101.852 72.675 101.299 78.0177C101.11 79.841 101.138 81.8579 101.381 84.0683C101.488 83.865 102.094 83.82 103.198 83.9334C104.473 84.0641 105.243 84.2932 105.51 84.6205C105.936 85.4784 106.055 86.819 105.866 88.6423C105.581 91.3985 104.906 93.1505 103.841 93.8983C101.626 94.1424 98.9897 94.1076 95.9311 93.7938C90.9184 93.2795 88.0568 92.5145 87.3462 91.4989C87.2714 90.977 87.3416 89.6772 87.5566 87.5994C87.8638 84.6313 88.1558 83.0543 88.4326 82.8684C88.7695 82.5173 89.6176 82.4115 90.9769 82.5509C91.954 82.6512 92.6608 82.8737 93.0974 83.2184C92.816 82.2039 92.9649 78.8982 93.5442 73.301C93.7373 71.4353 93.9107 70.3818 94.0645 70.1405C93.5459 70.173 93.0742 70.1674 92.6494 70.1238C91.1201 69.9669 90.0976 69.4764 89.5819 68.6521C89.3928 67.9899 89.3861 66.8108 89.5616 65.1147Z" fill="#2D3142"/>
<path d="M125.018 92.0713C124.587 89.4603 124.889 87.7489 125.922 86.9371C126.912 86.3913 128.313 85.9749 130.125 85.688C130.377 85.648 130.721 85.6367 131.157 85.6542C130.955 84.433 130.59 82.4814 130.061 79.7995C129.524 77.0755 129.142 75.0186 128.912 73.6289C128.744 73.6556 128.059 73.8288 126.858 74.1487C125.651 74.4264 124.941 74.5819 124.731 74.6153C124.562 74.642 124.303 74.6399 123.952 74.609C123.601 74.5782 123.341 74.5761 123.173 74.6028C122.976 74.461 122.819 74.0322 122.701 73.3163C122.513 72.1792 122.449 70.7417 122.508 69.0039C122.56 67.2238 122.702 66.121 122.934 65.6953C124.073 64.7371 126.412 63.9778 129.95 63.4173C132.225 63.0571 133.766 62.9643 134.573 63.139C135.38 63.3137 135.867 63.9064 136.033 64.9171C136.242 66.1805 136.345 67.4605 136.343 68.7573C139.51 63.5886 143.305 60.654 147.728 59.9534C149.835 59.6199 151.842 59.8638 153.75 60.6851C155.693 61.4578 157.295 62.7814 158.555 64.656L158.503 64.3402C161.641 59.7811 165.295 57.1713 169.465 56.5108C176.753 55.3566 181.238 59.8751 182.92 70.0664C183.247 72.0457 183.451 74.0661 183.532 76.1276C183.518 76.0433 183.7 75.9712 184.08 75.9112C184.711 75.8111 185.719 75.7596 187.102 75.7566C187.55 76.1177 187.966 77.4564 188.348 79.7726C188.828 82.6784 188.912 84.5015 188.602 85.2421C185.582 86.5847 182.913 87.4395 180.596 87.8064C178.953 88.0667 176.995 87.9879 174.722 87.5701C174.392 87.4062 173.954 86.7193 173.409 85.5093C172.856 84.2572 172.504 83.1679 172.351 82.2414C172.121 80.8516 172.302 79.5914 172.894 78.4606C173.309 78.0924 173.895 77.8483 174.653 77.7282C175.243 77.6348 175.829 77.65 176.412 77.7738C176.391 77.6475 176.3 77.1 176.14 76.1314C176.023 75.1561 175.94 74.5211 175.891 74.2263C175.439 71.489 174.295 69.2718 172.459 67.5748C170.622 65.8778 168.735 65.1827 166.798 65.4896C165.66 65.6698 164.519 66.2179 163.373 67.134C162.221 68.0079 161.401 69.0668 160.915 70.3106C161.006 70.5987 161.085 71.083 161.155 71.7635C161.655 74.7956 161.949 77.3635 162.037 79.467L162.163 79.447C162.199 79.3982 162.237 79.3705 162.279 79.3638C163.627 79.1503 164.951 79.0488 166.249 79.0592C166.698 79.4203 167.113 80.7589 167.496 83.0751C167.975 85.9809 168.06 87.8041 167.75 88.5446C164.73 89.8873 161.85 90.7754 159.112 91.2091C157.048 91.536 154.879 91.4906 152.605 91.0728C152.276 90.9089 151.838 90.222 151.293 89.012C150.74 87.7599 150.387 86.6706 150.235 85.7441C150.005 84.3544 150.186 83.0941 150.778 81.9633C151.192 81.5951 151.779 81.351 152.537 81.2309C153.548 81.0708 154.345 81.0526 154.927 81.1764C154.906 81.0501 154.816 80.5026 154.656 79.534C154.538 78.5588 154.459 77.9448 154.417 77.6921C153.979 75.039 152.86 72.8396 151.059 71.0938C149.293 69.2992 147.314 68.5754 145.124 68.9223C143.228 69.2225 141.609 70.2785 140.265 72.0902C138.956 73.8531 138.573 76.377 139.116 79.6618C139.31 80.841 139.627 82.3681 140.066 84.2431C140.523 83.8683 141.152 83.6175 141.952 83.4907C142.71 83.3706 143.191 83.4025 143.394 83.5864C143.816 83.5197 144.165 84.3286 144.443 86.0131C144.506 86.3921 144.58 88.1521 144.666 91.2931C141.877 93.2474 138.08 94.6048 133.278 95.3654C129.655 95.9392 127.238 95.6955 126.025 94.6344C125.562 94.1891 125.227 93.3347 125.018 92.0713Z" fill="#2D3142"/>
<path d="M196.374 80.4617C195.539 78.7768 194.839 76.8374 194.274 74.6435C193.767 72.4694 193.65 70.8902 193.923 69.906C194.309 69.4367 194.808 69.0545 195.423 68.7595C196.921 68.0406 198.569 67.818 200.369 68.0919C200.579 68.133 200.779 68.345 200.969 68.7279C201.083 68.9577 201.196 69.33 201.309 69.8448C203.3 70.2164 205.014 70.2704 206.452 70.0067C207.929 69.7246 209.684 69.095 211.72 68.118C213.218 67.3991 214.437 66.695 215.379 66.0058C216.379 65.3365 217.293 64.4949 218.121 63.4809C219.007 62.4869 219.463 61.2963 219.489 59.9093C219.514 58.5224 219.11 56.9865 218.275 55.3016C217.572 53.8848 216.84 52.7432 216.078 51.8766C214.161 56.1622 211.417 59.1622 207.846 60.8766C204.082 62.6831 200.308 62.6461 196.524 60.7653C192.72 58.8463 189.67 55.5702 187.374 50.9369C186.748 49.6732 186.303 48.4883 186.04 47.3821C185.867 47.6076 185.626 47.7941 185.319 47.9416C185.012 48.089 184.523 48.2528 183.851 48.4329C183.161 48.5747 182.777 48.664 182.7 48.7009C181.689 47.9066 180.775 46.6862 179.959 45.0397C179.086 43.2783 178.691 41.809 178.773 40.6319C181.408 38.4665 183.685 36.923 185.605 36.0013C187.948 34.8768 190.202 34.1976 192.368 33.9637C193.859 34.6701 195.012 35.8465 195.829 37.493C196.531 38.9098 196.754 40.272 196.499 41.5796C196.229 41.9937 195.883 42.3021 195.46 42.5049C195.114 42.6708 194.606 42.7962 193.935 42.8813C194.158 44.481 194.639 46.0276 195.379 47.5209C197.903 52.6137 201.201 54.1831 205.271 52.2291C207.652 51.0862 209.27 49.2668 210.125 46.7708C210.979 44.2749 210.771 41.7442 209.499 39.1786C209.044 38.2596 208.387 37.3186 207.53 36.3556C207.144 36.92 206.529 37.405 205.684 37.8106C205.185 38.0502 204.801 38.092 204.534 37.936C203.672 37.8282 202.776 36.8361 201.846 34.9598C200.879 33.0069 200.617 31.6632 201.061 30.9286C201.241 29.1828 203.175 27.4251 206.862 25.6555C208.628 24.8075 210.49 24.1035 212.447 23.5434C214.442 22.9649 215.842 22.6721 216.646 22.6651C217.293 23.5869 217.845 24.5073 218.3 25.4263C219.135 27.1112 219.474 28.3705 219.317 29.2044C219.142 29.715 218.805 30.09 218.306 30.3297C218.037 30.4587 217.759 30.5686 217.471 30.6594C217.203 30.6934 216.886 30.7267 216.522 30.7593C216.158 30.7919 215.909 30.8167 215.775 30.8337C219.193 37.1561 221.13 40.7768 221.586 41.6958C223.56 45.6782 225.009 49.2251 225.933 52.3367C226.895 55.4297 227.381 58.0881 227.389 60.3118C227.417 62.5738 226.967 64.5912 226.039 66.3638C225.15 68.1181 223.974 69.583 222.513 70.7586C221.07 71.9724 219.197 73.1324 216.892 74.2384C212.476 76.3584 208.036 77.3757 203.573 77.2903C203.853 78.7198 203.955 79.4531 203.879 79.4899C203.491 80.3394 202.664 81.0683 201.397 81.6766C200.629 82.0453 199.823 82.2899 198.98 82.4104C198.193 82.5507 197.705 82.5245 197.514 82.3316C197.152 81.8891 196.772 81.2658 196.374 80.4617Z" fill="#2D3142"/>
<path d="M22.4851 30.0925C22.845 29.2257 23.2928 28.6477 23.8286 28.3584C28.4692 27.7527 33.0636 28.3709 37.612 30.2132C41.7649 31.8953 45.1548 33.9128 47.7819 36.2655C50.4485 38.6344 52.286 41.2197 53.2945 44.0215C54.3425 46.8393 54.7653 49.7721 54.5628 52.8199C54.3767 55.8282 53.5968 58.9872 52.223 62.2969C49.5081 68.8376 45.6526 73.0061 40.6564 74.8026C35.6603 76.5991 29.2467 75.9113 21.4155 72.7394C16.788 70.8651 12.7018 68.2434 9.15669 64.8744C8.92472 64.3202 9.29121 62.8807 10.2561 60.5561C10.7958 59.2558 11.2068 58.4327 11.489 58.0868C11.853 57.5438 12.8062 57.5847 14.3487 58.2095C14.7838 58.3857 15.2618 58.6254 15.7828 58.9284C16.5321 56.0102 17.8554 52.2657 19.7525 47.6952C21.437 43.6368 23.2281 39.9898 25.1255 36.7541C24.6414 36.6961 24.0829 36.539 23.4501 36.2826C21.9076 35.6579 21.1997 35.0259 21.3264 34.3868C21.5919 32.7454 21.9781 31.314 22.4851 30.0925ZM23.6778 63.7832C24.6612 64.6418 25.8253 65.3434 27.17 65.8881C30.4528 67.2177 33.7468 67.2402 37.0521 65.9555C40.4133 64.6475 42.838 62.2007 44.3263 58.6152C45.8473 54.9508 46.0264 51.1802 44.8635 47.3033C43.7007 43.4264 41.4582 40.8151 38.1359 39.4695C36.7516 38.9088 35.3912 38.6799 34.0548 38.783C32.9389 42.4733 31.4405 46.584 29.5597 51.1152C27.3191 56.5132 25.3584 60.7358 23.6778 63.7832Z" fill="#FEE440"/>
<path d="M0.678585 50.1529C1.251 48.7738 2.23395 47.6301 3.62742 46.7217C4.86569 46.8551 5.72214 47.0178 6.19675 47.2101C6.94822 47.5145 7.65405 47.9845 8.31424 48.6201C8.62146 50.2173 8.46433 51.7646 7.84285 53.2618C7.23772 54.7197 6.21731 56.0093 4.78161 57.1308C4.01796 57.1897 3.26039 57.0669 2.50892 56.7625C1.75745 56.4582 0.952742 55.9481 0.094801 55.2324C-0.137489 53.3433 0.0571053 51.6501 0.678585 50.1529ZM8.89684 30.3537C9.46926 28.9747 10.4522 27.8309 11.8457 26.9225C13.084 27.0559 13.9404 27.2187 14.415 27.4109C15.1665 27.7153 15.8723 28.1853 16.5325 28.8209C16.8397 30.4181 16.6826 31.9654 16.0611 33.4627C15.4723 34.8811 14.4519 36.1707 12.9999 37.3316C12.2362 37.3905 11.4786 37.2677 10.7272 36.9633C9.9757 36.659 9.171 36.1489 8.31306 35.4332C8.08077 33.5441 8.27536 31.851 8.89684 30.3537Z" fill="#FEE440"/>
<path d="M120.259 36.1404C119.35 35.2941 118.826 34.2026 118.687 32.8658C118.56 31.6484 118.774 30.4678 119.331 29.3239C119.885 28.1561 120.758 27.51 121.952 27.3855C122.763 27.3009 123.518 27.4756 124.214 27.9096C124.933 28.3173 125.318 28.7718 125.37 29.2731L125.415 29.7028C125.43 29.846 125.44 30.1707 125.444 30.677C125.47 31.1569 125.496 31.866 125.521 32.8045C125.568 33.7165 125.613 34.7253 125.656 35.8308C125.631 36.0506 125.309 36.3254 124.692 36.6552C124.075 36.985 123.516 37.1761 123.015 37.2284C122.108 37.323 121.189 36.9603 120.259 36.1404Z" fill="#00BBF9"/>
<path fill-rule="evenodd" clip-rule="evenodd" d="M140.941 29.4128C141.456 33.1923 140.723 36.854 139.058 39.9824L147.483 45.5437C149.096 46.6086 149.54 48.7797 148.475 50.3929C147.41 52.0061 145.239 52.4505 143.626 51.3855L134.755 45.529C134.695 45.4894 134.636 45.4483 134.58 45.4058C132.181 47.3414 129.24 48.6679 125.963 49.1141C116.386 50.4183 107.566 43.7122 106.261 34.1356C104.957 24.559 111.663 15.7384 121.24 14.4342C130.817 13.1301 139.637 19.8362 140.941 29.4128ZM114.541 29.2082C114.206 30.8598 114.129 32.5449 114.308 34.2636C114.54 36.4836 115.202 38.3208 116.295 39.7753C117.411 41.2272 118.889 41.8574 120.727 41.6657C121.323 41.6034 122.258 41.1923 123.53 40.4322C124.802 39.6722 125.576 39.2294 125.853 39.1041C125.791 39.207 125.77 39.354 125.79 39.545C125.822 39.8553 125.946 40.2285 126.16 40.6646C126.647 40.7103 127.906 40.6273 129.935 40.4157C131.057 40.2987 132.047 40.0747 132.905 39.7439C133.763 39.4131 134.262 39.1077 134.402 38.8277C134.444 38.5338 134.41 37.8616 134.3 36.8113C134.104 34.9256 133.902 33.921 133.696 33.7977C132.671 33.6875 131.634 33.6871 130.583 33.7967C130.345 33.8216 130.146 33.8785 129.986 33.9676C130.166 33.611 130.093 31.8692 129.767 28.7421C129.655 27.6679 129.555 27.063 129.469 26.9272C129.76 26.9451 130.025 26.9416 130.264 26.9167C130.765 26.8644 131.356 26.7425 132.036 26.5509C132.713 26.3355 133.079 26.1405 133.133 25.9659C133.206 25.7411 133.183 25.0559 133.063 23.9101C132.946 22.7882 132.829 22.1248 132.711 21.9199L132.636 21.8915C132.585 21.8727 132.461 21.8374 132.263 21.7857C132.088 21.7315 131.854 21.6835 131.56 21.6418C131.266 21.6001 130.83 21.5852 130.252 21.5972C129.698 21.6067 129.063 21.6488 128.347 21.7235C127.44 21.8181 126.731 21.9645 126.221 22.1625C125.732 22.3341 125.27 22.6477 124.835 23.1033C124.901 23.5066 125.002 24.3528 125.136 25.6418C125.112 25.6443 125.052 25.5299 124.956 25.2987C124.859 25.0674 124.698 24.7947 124.472 24.4804C124.244 24.1423 123.957 23.8223 123.612 23.5205C123.288 23.1923 122.839 22.9375 122.265 22.756C121.715 22.5721 121.094 22.5162 120.402 22.5884C118.874 22.7478 117.598 23.472 116.575 24.7612C115.575 26.0479 114.897 27.5302 114.541 29.2082Z" fill="#00BBF9"/>
<path d="M61.6964 39.9536C61.7193 37.9057 61.8602 36.7554 62.1191 36.5028C62.6344 36.2108 63.1698 36.0257 63.7254 35.9476C64.4948 35.8295 64.9861 35.7719 65.1994 35.7747C64.7352 31.5016 64.5272 27.2106 64.5755 22.9015C64.6218 18.7631 64.9239 14.6494 65.4817 10.5603C65.2684 10.5575 64.7785 10.4871 64.012 10.3492C63.4161 10.2134 62.885 10.0145 62.4186 9.75245C62.1654 9.49314 62.0504 8.33955 62.0733 6.29168C62.0981 4.07315 62.2402 2.81623 62.4995 2.5209C64.0914 1.3468 66.8712 0.785491 70.8389 0.836986C73.3987 0.870208 75.1668 1.10651 76.1433 1.54588C76.3945 1.97585 76.6809 3.06765 77.0027 4.82131C77.3675 6.53285 77.5449 7.83659 77.5349 8.73254C77.5287 9.28717 77.4606 9.64898 77.3307 9.81798C76.3869 10.2751 75.5737 10.4992 74.8911 10.4904C74.4218 10.4843 74.0594 10.4582 73.8039 10.4123C74.2397 13.4048 74.4635 16.288 74.4751 19.0617C75.7185 18.5231 78.1321 18.2771 81.7158 18.3236C85.2568 18.3695 88.1117 18.7266 90.2803 19.3948C90.4451 16.1114 90.7115 13.2772 91.0795 10.8925C90.8662 10.8897 90.3763 10.8194 89.6098 10.6814C89.014 10.5457 88.4828 10.3467 88.0164 10.0847C87.7633 9.82537 87.6482 8.67178 87.6711 6.6239C87.696 4.40538 87.838 3.14845 88.0974 2.85313C88.0604 2.3406 88.7478 1.92282 90.1595 1.59978C91.5712 1.27674 93.3437 1.12906 95.4768 1.15675C98.2499 1.19274 100.551 1.43596 102.381 1.88641C102.632 2.31637 102.919 3.40818 103.24 5.16184C103.605 6.87338 103.783 8.17712 103.773 9.07307C103.766 9.6277 103.698 9.98951 103.569 10.1585C102.625 10.6156 101.598 10.837 100.489 10.8226C100.02 10.8165 99.6572 10.7905 99.4017 10.7445C99.875 14.2069 100.089 17.9647 100.044 22.0177C100.006 25.3455 99.6963 30.1632 99.1137 36.4709C99.3701 36.4315 99.733 36.4149 100.202 36.421C100.885 36.4298 101.693 36.675 102.626 37.1565C102.752 37.3288 102.812 37.6923 102.806 38.2469C102.796 39.1429 102.589 40.463 102.186 42.2072C101.825 43.9093 101.515 44.9721 101.254 45.3954C100.482 45.7694 99.093 45.9434 97.0878 45.9174C94.8267 45.888 92.6741 45.6894 90.6301 45.3215C88.5861 44.9536 87.588 44.5353 87.636 44.0665C87.3833 43.7646 87.2694 42.5043 87.2943 40.2858C87.3172 38.2379 87.4581 37.0877 87.7169 36.835C88.2322 36.543 88.7677 36.3579 89.3232 36.2798C90.0926 36.1618 90.5839 36.1041 90.7972 36.1069C90.4472 33.0728 90.251 29.6353 90.2087 25.7944C87.6451 26.1025 84.8274 26.2366 81.7556 26.1968C78.0866 26.1491 75.5714 25.9458 74.21 25.5868C74.0438 28.9982 73.8124 32.5155 73.5158 36.1386C73.7723 36.0993 74.1352 36.0827 74.6045 36.0888C75.2871 36.0976 76.095 36.3428 77.0284 36.8243C77.1545 36.9966 77.2144 37.3601 77.2082 37.9147C77.1982 38.8107 77.0127 40.131 76.6518 41.8758C76.2914 43.5779 75.9595 44.6404 75.6561 45.0632C74.67 45.4771 72.7265 45.6652 69.8254 45.6275C65.4738 45.5711 62.878 44.94 62.0381 43.7343C61.7855 43.4324 61.6716 42.1721 61.6964 39.9536Z" fill="#00BBF9"/>
</svg>
