<svg width="28" height="29" viewBox="0 0 28 29" fill="none" xmlns="http://www.w3.org/2000/svg">
<path d="M21.5134 16.6641L15.0979 5.08226C14.9375 4.79338 14.7236 4.5401 14.4686 4.3369C14.2135 4.13371 13.9223 3.9846 13.6116 3.89809C12.9795 3.72261 12.3061 3.81158 11.7367 4.1458L10.3414 4.9868C10.3065 5.00407 10.2755 5.02878 10.2504 5.0593L10.1699 5.16442C10.0866 5.25846 10.0276 5.37276 9.99841 5.49671C9.50075 7.06962 8.88118 8.59831 8.14575 10.0678C7.62864 10.9722 6.93096 11.7516 6.09941 12.354L4.00641 14.2728C3.58186 14.6646 3.29946 15.1951 3.20608 15.776C3.14535 16.1712 3.16884 16.5754 3.27491 16.9602C2.98791 17.1245 2.73825 17.3517 2.54341 17.6248C2.34624 17.8925 2.20229 18.198 2.11991 18.5238C2.05703 18.8561 2.05703 19.1979 2.11991 19.5303C2.20844 20.1986 2.54595 20.8045 3.06025 21.2183C3.31691 21.4213 3.61208 21.5688 3.92708 21.6509C4.13125 21.7089 4.34358 21.7355 4.55591 21.7331C4.66908 21.7452 4.78458 21.7452 4.89891 21.7331C5.21625 21.6932 5.52075 21.5796 5.79025 21.402C6.04225 21.6956 6.36075 21.9192 6.71658 22.0545C6.99308 22.1669 7.28825 22.2237 7.58575 22.2188C7.74791 22.2225 7.90891 22.2031 8.06641 22.1596L9.92958 25.607C10.1517 25.9935 10.4663 26.3142 10.8429 26.5381C11.2195 26.762 11.6455 26.8816 12.0797 26.8854C12.6226 26.8792 13.1487 26.6896 13.5781 26.3455C14.0074 26.0013 14.3166 25.5214 14.4586 24.9787C14.6216 24.3234 14.5355 23.6284 14.2182 23.0369L12.8229 20.526C13.1986 20.439 13.5812 20.3918 13.9662 20.3834C15.5937 20.4547 17.2119 20.6686 18.8032 21.0238H19.2034L19.3866 20.9392L19.5581 20.8329L20.7819 20.0994C21.3442 19.7623 21.7561 19.2089 21.9252 18.56C22.0316 17.8966 21.8838 17.2164 21.5134 16.6641ZM7.64291 20.4788C7.48023 20.5384 7.30276 20.5384 7.14008 20.4788C6.97905 20.4197 6.84455 20.3015 6.76208 20.1465L5.02375 16.9964L4.91058 16.7946C4.82191 16.6353 4.78937 16.4491 4.81852 16.2678C4.84767 16.0864 4.9367 15.9211 5.07041 15.8002L6.36191 14.616L6.84258 15.492L9.32408 19.9931L7.64291 20.4788ZM20.0959 18.1105C20.0402 18.3122 19.9137 18.485 19.7412 18.595L19.1007 18.9745L11.9421 6.05255L12.5942 5.66226C12.6777 5.61064 12.7705 5.57764 12.867 5.56536C12.9634 5.55309 13.0613 5.56181 13.1542 5.59096C13.2496 5.61541 13.3392 5.65946 13.4177 5.72049C13.4963 5.78151 13.5622 5.85828 13.6116 5.94621L20.0271 17.5172C20.0843 17.616 20.1202 17.7265 20.132 17.8411C20.1439 17.9556 20.1316 18.0715 20.0959 18.1806V18.1105ZM19.7984 11.0744C19.648 11.0775 19.4995 11.0386 19.3687 10.9616C19.2379 10.8846 19.1296 10.7724 19.0552 10.637C18.9498 10.4363 18.9231 10.2013 18.9807 9.98072C19.0383 9.76018 19.1757 9.57111 19.3644 9.4528L22.2227 7.73455C22.4159 7.62228 22.6438 7.59293 22.8576 7.6528C23.0713 7.71267 23.2539 7.85699 23.3661 8.05476C23.4715 8.25544 23.4982 8.49047 23.4406 8.711C23.383 8.93154 23.2456 9.12061 23.0569 9.23892L20.1986 10.956C20.0768 11.0293 19.9392 11.07 19.7984 11.0744ZM25.0694 15.2673H21.7654C21.6528 15.2673 21.5413 15.2443 21.4373 15.1997C21.3332 15.1551 21.2387 15.0896 21.1591 15.0072C21.0794 14.9247 21.0163 14.8268 20.9732 14.719C20.9301 14.6113 20.9079 14.4958 20.9079 14.3792C20.9079 14.2625 20.9301 14.1471 20.9732 14.0393C21.0163 13.9316 21.0794 13.8336 21.1591 13.7512C21.2387 13.6687 21.3332 13.6033 21.4373 13.5587C21.5413 13.514 21.6528 13.491 21.7654 13.491H25.0694C25.2968 13.491 25.5149 13.5846 25.6758 13.7512C25.8366 13.9177 25.9269 14.1436 25.9269 14.3792C25.9269 14.6147 25.8366 14.8406 25.6758 15.0072C25.5149 15.1737 25.2968 15.2673 25.0694 15.2673ZM17.0999 6.84642C16.9508 6.84916 16.804 6.8081 16.6764 6.72801C16.4839 6.61341 16.3425 6.42511 16.2827 6.20363C16.223 5.98216 16.2495 5.74522 16.3567 5.54384L18.0029 2.55926C18.1213 2.36506 18.3077 2.22586 18.523 2.1708C18.7384 2.11574 18.9659 2.14909 19.158 2.26387C19.3501 2.37866 19.4918 2.56597 19.5536 2.78657C19.6153 3.00718 19.5923 3.24398 19.4892 3.44738L17.8431 6.41988C17.7665 6.55256 17.6575 6.6619 17.527 6.73681C17.3964 6.81172 17.2491 6.84954 17.0999 6.84642Z" fill="white"/>
<path d="M21.5134 16.6641L15.0979 5.08226C14.9375 4.79338 14.7236 4.5401 14.4686 4.3369C14.2135 4.13371 13.9223 3.9846 13.6116 3.89809C12.9795 3.72261 12.3061 3.81158 11.7367 4.1458L10.3414 4.9868C10.3065 5.00407 10.2755 5.02878 10.2504 5.0593L10.1699 5.16442C10.0866 5.25846 10.0276 5.37276 9.99841 5.49671C9.50075 7.06962 8.88118 8.59831 8.14575 10.0678C7.62864 10.9722 6.93096 11.7516 6.09941 12.354L4.00641 14.2728C3.58186 14.6646 3.29946 15.1951 3.20608 15.776C3.14535 16.1712 3.16884 16.5754 3.27491 16.9602C2.98791 17.1245 2.73825 17.3517 2.54341 17.6248C2.34624 17.8925 2.20229 18.198 2.11991 18.5238C2.05703 18.8561 2.05703 19.1979 2.11991 19.5303C2.20844 20.1986 2.54595 20.8045 3.06025 21.2183C3.31691 21.4213 3.61208 21.5688 3.92708 21.6509C4.13125 21.7089 4.34358 21.7355 4.55591 21.7331C4.66908 21.7452 4.78458 21.7452 4.89891 21.7331C5.21625 21.6932 5.52075 21.5796 5.79025 21.402C6.04225 21.6956 6.36075 21.9192 6.71658 22.0545C6.99308 22.1669 7.28825 22.2237 7.58575 22.2188C7.74791 22.2225 7.90891 22.2031 8.06641 22.1596L9.92958 25.607C10.1517 25.9935 10.4663 26.3142 10.8429 26.5381C11.2195 26.762 11.6455 26.8816 12.0797 26.8854C12.6226 26.8792 13.1487 26.6896 13.5781 26.3455C14.0074 26.0013 14.3166 25.5214 14.4586 24.9787C14.6216 24.3234 14.5355 23.6284 14.2182 23.0369L12.8229 20.526C13.1986 20.439 13.5812 20.3918 13.9662 20.3834C15.5937 20.4547 17.2119 20.6686 18.8032 21.0238H19.2034L19.3866 20.9392L19.5581 20.8329L20.7819 20.0994C21.3442 19.7623 21.7561 19.2089 21.9252 18.56C22.0316 17.8966 21.8838 17.2164 21.5134 16.6641ZM7.64291 20.4788C7.48023 20.5384 7.30276 20.5384 7.14008 20.4788C6.97905 20.4197 6.84455 20.3015 6.76208 20.1465L5.02375 16.9964L4.91058 16.7946C4.82191 16.6353 4.78937 16.4491 4.81852 16.2678C4.84767 16.0864 4.9367 15.9211 5.07041 15.8002L6.36191 14.616L6.84258 15.492L9.32408 19.9931L7.64291 20.4788ZM20.0959 18.1105C20.0402 18.3122 19.9137 18.485 19.7412 18.595L19.1007 18.9745L11.9421 6.05255L12.5942 5.66226C12.6777 5.61064 12.7705 5.57764 12.867 5.56536C12.9634 5.55309 13.0613 5.56181 13.1542 5.59096C13.2496 5.61541 13.3392 5.65946 13.4177 5.72049C13.4963 5.78151 13.5622 5.85828 13.6116 5.94621L20.0271 17.5172C20.0843 17.616 20.1202 17.7265 20.132 17.8411C20.1439 17.9556 20.1316 18.0715 20.0959 18.1806V18.1105ZM19.7984 11.0744C19.648 11.0775 19.4995 11.0386 19.3687 10.9616C19.2379 10.8846 19.1296 10.7724 19.0552 10.637C18.9498 10.4363 18.9231 10.2013 18.9807 9.98072C19.0383 9.76018 19.1757 9.57111 19.3644 9.4528L22.2227 7.73455C22.4159 7.62228 22.6438 7.59293 22.8576 7.6528C23.0713 7.71267 23.2539 7.85699 23.3661 8.05476C23.4715 8.25544 23.4982 8.49047 23.4406 8.711C23.383 8.93154 23.2456 9.12061 23.0569 9.23892L20.1986 10.956C20.0768 11.0293 19.9392 11.07 19.7984 11.0744ZM25.0694 15.2673H21.7654C21.6528 15.2673 21.5413 15.2443 21.4373 15.1997C21.3332 15.1551 21.2387 15.0896 21.1591 15.0072C21.0794 14.9247 21.0163 14.8268 20.9732 14.719C20.9301 14.6113 20.9079 14.4958 20.9079 14.3792C20.9079 14.2625 20.9301 14.1471 20.9732 14.0393C21.0163 13.9316 21.0794 13.8336 21.1591 13.7512C21.2387 13.6687 21.3332 13.6033 21.4373 13.5587C21.5413 13.514 21.6528 13.491 21.7654 13.491H25.0694C25.2968 13.491 25.5149 13.5846 25.6758 13.7512C25.8366 13.9177 25.9269 14.1436 25.9269 14.3792C25.9269 14.6147 25.8366 14.8406 25.6758 15.0072C25.5149 15.1737 25.2968 15.2673 25.0694 15.2673ZM17.0999 6.84642C16.9508 6.84916 16.804 6.8081 16.6764 6.72801C16.4839 6.61341 16.3425 6.42511 16.2827 6.20363C16.223 5.98216 16.2495 5.74522 16.3567 5.54384L18.0029 2.55926C18.1213 2.36506 18.3077 2.22586 18.523 2.1708C18.7384 2.11574 18.9659 2.14909 19.158 2.26387C19.3501 2.37866 19.4918 2.56597 19.5536 2.78657C19.6153 3.00718 19.5923 3.24398 19.4892 3.44738L17.8431 6.41988C17.7665 6.55256 17.6575 6.6619 17.527 6.73681C17.3964 6.81172 17.2491 6.84954 17.0999 6.84642Z" fill="white"/>
</svg>
