<svg width="28" height="29" viewBox="0 0 28 29" fill="none" xmlns="http://www.w3.org/2000/svg">
<path d="M21.5134 16.6641L15.0979 5.08222C14.9375 4.79335 14.7236 4.54007 14.4686 4.33687C14.2135 4.13368 13.9223 3.98457 13.6116 3.89806C12.9795 3.72258 12.3061 3.81155 11.7367 4.14577L10.3414 4.98677C10.3065 5.00404 10.2755 5.02875 10.2504 5.05927L10.1699 5.16439C10.0866 5.25843 10.0276 5.37273 9.99841 5.49668C9.50075 7.06959 8.88118 8.59828 8.14575 10.0678C7.62864 10.9721 6.93096 11.7516 6.09941 12.354L4.00641 14.2728C3.58186 14.6646 3.29946 15.195 3.20608 15.776C3.14535 16.1712 3.16884 16.5753 3.27491 16.9601C2.98791 17.1245 2.73825 17.3516 2.54341 17.6247C2.34624 17.8924 2.20229 18.198 2.11991 18.5237C2.05703 18.8561 2.05703 19.1979 2.11991 19.5303C2.20844 20.1986 2.54595 20.8044 3.06025 21.2183C3.31691 21.4213 3.61208 21.5687 3.92708 21.6509C4.13125 21.7089 4.34358 21.7355 4.55591 21.7331C4.66908 21.7451 4.78458 21.7451 4.89891 21.7331C5.21625 21.6932 5.52075 21.5796 5.79025 21.402C6.04225 21.6956 6.36075 21.9191 6.71658 22.0545C6.99308 22.1669 7.28825 22.2236 7.58575 22.2188C7.74791 22.2224 7.90891 22.2031 8.06641 22.1596L9.92958 25.607C10.1517 25.9935 10.4663 26.3141 10.8429 26.5381C11.2195 26.762 11.6455 26.8816 12.0797 26.8854C12.6226 26.8792 13.1487 26.6896 13.5781 26.3454C14.0074 26.0013 14.3166 25.5214 14.4586 24.9786C14.6216 24.3234 14.5355 23.6283 14.2182 23.0369L12.8229 20.5259C13.1986 20.4389 13.5812 20.3918 13.9662 20.3834C15.5937 20.4546 17.2119 20.6685 18.8032 21.0238H19.2034L19.3866 20.9392L19.5581 20.8329L20.7819 20.0994C21.3442 19.7623 21.7561 19.2089 21.9252 18.56C22.0316 17.8966 21.8838 17.2164 21.5134 16.6641ZM7.64291 20.4788C7.48023 20.5383 7.30276 20.5383 7.14008 20.4788C6.97905 20.4197 6.84455 20.3015 6.76208 20.1465L5.02375 16.9964L4.91058 16.7946C4.82191 16.6353 4.78937 16.4491 4.81852 16.2677C4.84767 16.0864 4.9367 15.9211 5.07041 15.8001L6.36191 14.616L6.84258 15.492L9.32408 19.9931L7.64291 20.4788ZM20.0959 18.1105C20.0402 18.3122 19.9137 18.485 19.7412 18.595L19.1007 18.9744L11.9421 6.05252L12.5942 5.66223C12.6777 5.61061 12.7705 5.57761 12.867 5.56533C12.9634 5.55306 13.0613 5.56178 13.1542 5.59093C13.2496 5.61538 13.3392 5.65943 13.4177 5.72046C13.4963 5.78148 13.5622 5.85825 13.6116 5.94618L20.0271 17.5172C20.0843 17.616 20.1202 17.7265 20.132 17.841C20.1439 17.9556 20.1316 18.0714 20.0959 18.1806V18.1105ZM19.7984 11.0744C19.648 11.0775 19.4995 11.0385 19.3687 10.9616C19.2379 10.8846 19.1296 10.7724 19.0552 10.6369C18.9498 10.4363 18.9231 10.2012 18.9807 9.98069C19.0383 9.76015 19.1757 9.57108 19.3644 9.45277L22.2227 7.73452C22.4159 7.62225 22.6438 7.5929 22.8576 7.65277C23.0713 7.71264 23.2539 7.85696 23.3661 8.05473C23.4715 8.25541 23.4982 8.49044 23.4406 8.71097C23.383 8.93151 23.2456 9.12058 23.0569 9.23889L20.1986 10.9559C20.0768 11.0293 19.9392 11.07 19.7984 11.0744ZM25.0694 15.2673H21.7654C21.6528 15.2673 21.5413 15.2443 21.4373 15.1997C21.3332 15.155 21.2387 15.0896 21.1591 15.0071C21.0794 14.9247 21.0163 14.8268 20.9732 14.719C20.9301 14.6113 20.9079 14.4958 20.9079 14.3791C20.9079 14.2625 20.9301 14.147 20.9732 14.0393C21.0163 13.9315 21.0794 13.8336 21.1591 13.7511C21.2387 13.6687 21.3332 13.6033 21.4373 13.5586C21.5413 13.514 21.6528 13.491 21.7654 13.491H25.0694C25.2968 13.491 25.5149 13.5846 25.6758 13.7511C25.8366 13.9177 25.9269 14.1436 25.9269 14.3791C25.9269 14.6147 25.8366 14.8406 25.6758 15.0071C25.5149 15.1737 25.2968 15.2673 25.0694 15.2673ZM17.0999 6.84639C16.9508 6.84913 16.804 6.80807 16.6764 6.72797C16.4839 6.61338 16.3425 6.42508 16.2827 6.2036C16.223 5.98213 16.2495 5.74519 16.3567 5.54381L18.0029 2.55922C18.1213 2.36503 18.3077 2.22583 18.523 2.17077C18.7384 2.11571 18.9659 2.14906 19.158 2.26384C19.3501 2.37863 19.4918 2.56594 19.5536 2.78654C19.6153 3.00715 19.5923 3.24395 19.4892 3.44735L17.8431 6.41985C17.7665 6.55253 17.6575 6.66187 17.527 6.73678C17.3964 6.81169 17.2491 6.84951 17.0999 6.84639Z" fill="#2D3142"/>
<path d="M21.5134 16.6642L15.0979 5.08229C14.9375 4.79341 14.7236 4.54013 14.4686 4.33694C14.2135 4.13374 13.9223 3.98463 13.6116 3.89812C12.9795 3.72264 12.3061 3.81161 11.7367 4.14583L10.3414 4.98683C10.3065 5.0041 10.2755 5.02881 10.2504 5.05933L10.1699 5.16445C10.0866 5.25849 10.0276 5.37279 9.99841 5.49674C9.50075 7.06965 8.88118 8.59834 8.14575 10.0679C7.62864 10.9722 6.93096 11.7516 6.09941 12.354L4.00641 14.2729C3.58186 14.6647 3.29946 15.1951 3.20608 15.776C3.14535 16.1712 3.16884 16.5754 3.27491 16.9602C2.98791 17.1245 2.73825 17.3517 2.54341 17.6248C2.34624 17.8925 2.20229 18.1981 2.11991 18.5238C2.05703 18.8561 2.05703 19.198 2.11991 19.5303C2.20844 20.1986 2.54595 20.8045 3.06025 21.2184C3.31691 21.4214 3.61208 21.5688 3.92708 21.651C4.13125 21.709 4.34358 21.7355 4.55591 21.7331C4.66908 21.7452 4.78458 21.7452 4.89891 21.7331C5.21625 21.6932 5.52075 21.5797 5.79025 21.402C6.04225 21.6957 6.36075 21.9192 6.71658 22.0545C6.99308 22.1669 7.28825 22.2237 7.58575 22.2189C7.74791 22.2225 7.90891 22.2032 8.06641 22.1597L9.92958 25.607C10.1517 25.9935 10.4663 26.3142 10.8429 26.5381C11.2195 26.7621 11.6455 26.8817 12.0797 26.8855C12.6226 26.8792 13.1487 26.6897 13.5781 26.3455C14.0074 26.0013 14.3166 25.5214 14.4586 24.9787C14.6216 24.3235 14.5355 23.6284 14.2182 23.0369L12.8229 20.526C13.1986 20.439 13.5812 20.3919 13.9662 20.3834C15.5937 20.4547 17.2119 20.6686 18.8032 21.0238H19.2034L19.3866 20.9392L19.5581 20.8329L20.7819 20.0995C21.3442 19.7623 21.7561 19.2089 21.9252 18.56C22.0316 17.8966 21.8838 17.2165 21.5134 16.6642ZM7.64291 20.4789C7.48023 20.5384 7.30276 20.5384 7.14008 20.4789C6.97905 20.4198 6.84455 20.3015 6.76208 20.1466L5.02375 16.9965L4.91058 16.7947C4.82191 16.6354 4.78937 16.4492 4.81852 16.2678C4.84767 16.0864 4.9367 15.9212 5.07041 15.8002L6.36191 14.616L6.84258 15.4921L9.32408 19.9931L7.64291 20.4789ZM20.0959 18.1105C20.0402 18.3122 19.9137 18.485 19.7412 18.5951L19.1007 18.9745L11.9421 6.05258L12.5942 5.66229C12.6777 5.61067 12.7705 5.57767 12.867 5.56539C12.9634 5.55312 13.0613 5.56184 13.1542 5.59099C13.2496 5.61544 13.3392 5.65949 13.4177 5.72052C13.4963 5.78154 13.5622 5.85831 13.6116 5.94624L20.0271 17.5172C20.0843 17.616 20.1202 17.7265 20.132 17.8411C20.1439 17.9556 20.1316 18.0715 20.0959 18.1806V18.1105ZM19.7984 11.0744C19.648 11.0776 19.4995 11.0386 19.3687 10.9616C19.2379 10.8846 19.1296 10.7725 19.0552 10.637C18.9498 10.4363 18.9231 10.2013 18.9807 9.98075C19.0383 9.76021 19.1757 9.57114 19.3644 9.45283L22.2227 7.73458C22.4159 7.62231 22.6438 7.59296 22.8576 7.65283C23.0713 7.7127 23.2539 7.85702 23.3661 8.05479C23.4715 8.25547 23.4982 8.4905 23.4406 8.71103C23.383 8.93157 23.2456 9.12064 23.0569 9.23895L20.1986 10.956C20.0768 11.0294 19.9392 11.0701 19.7984 11.0744ZM25.0694 15.2673H21.7654C21.6528 15.2673 21.5413 15.2444 21.4373 15.1997C21.3332 15.1551 21.2387 15.0897 21.1591 15.0072C21.0794 14.9247 21.0163 14.8268 20.9732 14.7191C20.9301 14.6113 20.9079 14.4958 20.9079 14.3792C20.9079 14.2626 20.9301 14.1471 20.9732 14.0393C21.0163 13.9316 21.0794 13.8337 21.1591 13.7512C21.2387 13.6687 21.3332 13.6033 21.4373 13.5587C21.5413 13.5141 21.6528 13.4911 21.7654 13.4911H25.0694C25.2968 13.4911 25.5149 13.5846 25.6758 13.7512C25.8366 13.9178 25.9269 14.1437 25.9269 14.3792C25.9269 14.6147 25.8366 14.8406 25.6758 15.0072C25.5149 15.1738 25.2968 15.2673 25.0694 15.2673ZM17.0999 6.84645C16.9508 6.84919 16.804 6.80813 16.6764 6.72804C16.4839 6.61344 16.3425 6.42514 16.2827 6.20366C16.223 5.98219 16.2495 5.74525 16.3567 5.54387L18.0029 2.55929C18.1213 2.36509 18.3077 2.22589 18.523 2.17083C18.7384 2.11577 18.9659 2.14912 19.158 2.26391C19.3501 2.37869 19.4918 2.566 19.5536 2.78661C19.6153 3.00721 19.5923 3.24401 19.4892 3.44741L17.8431 6.41991C17.7665 6.55259 17.6575 6.66193 17.527 6.73684C17.3964 6.81175 17.2491 6.84957 17.0999 6.84645Z" fill="#2D3142"/>
</svg>
